<mxfile host="app.diagrams.net" modified="2023-12-29T10:48:26.201Z" agent="Mozilla/5.0 (Windows NT 10.0; Win64; x64) AppleWebKit/537.36 (KHTML, like Gecko) Chrome/120.0.0.0 Safari/537.36 Edg/120.0.0.0" etag="4g12cRsYSFFLmCAdPDVM" version="22.1.16" type="github">
  <diagram name="Stránka-1" id="8gpvIWyx2Zis0P1Vkdw6">
    <mxGraphModel dx="393" dy="688" grid="1" gridSize="10" guides="1" tooltips="1" connect="1" arrows="1" fold="1" page="1" pageScale="1" pageWidth="827" pageHeight="1169" math="0" shadow="0">
      <root>
        <mxCell id="0" />
        <mxCell id="1" parent="0" />
        <mxCell id="5FPVLCmRVMXUE-lfEmEZ-1" value="Back end" style="ellipse;whiteSpace=wrap;html=1;aspect=fixed;" vertex="1" parent="1">
          <mxGeometry x="170" y="100" width="120" height="120" as="geometry" />
        </mxCell>
        <mxCell id="5FPVLCmRVMXUE-lfEmEZ-9" style="edgeStyle=orthogonalEdgeStyle;rounded=0;orthogonalLoop=1;jettySize=auto;html=1;exitX=1;exitY=0.5;exitDx=0;exitDy=0;entryX=0.5;entryY=0;entryDx=0;entryDy=0;" edge="1" parent="1" source="5FPVLCmRVMXUE-lfEmEZ-1" target="5FPVLCmRVMXUE-lfEmEZ-2">
          <mxGeometry relative="1" as="geometry">
            <mxPoint x="350" y="260" as="targetPoint" />
          </mxGeometry>
        </mxCell>
        <mxCell id="5FPVLCmRVMXUE-lfEmEZ-2" value="databáze" style="ellipse;whiteSpace=wrap;html=1;aspect=fixed;" vertex="1" parent="1">
          <mxGeometry x="340" y="285" width="120" height="120" as="geometry" />
        </mxCell>
        <mxCell id="5FPVLCmRVMXUE-lfEmEZ-8" style="edgeStyle=orthogonalEdgeStyle;rounded=0;orthogonalLoop=1;jettySize=auto;html=1;exitX=0.5;exitY=0;exitDx=0;exitDy=0;entryX=0;entryY=0.5;entryDx=0;entryDy=0;" edge="1" parent="1" source="5FPVLCmRVMXUE-lfEmEZ-3" target="5FPVLCmRVMXUE-lfEmEZ-1">
          <mxGeometry relative="1" as="geometry">
            <mxPoint x="67.83333333333337" y="170" as="targetPoint" />
          </mxGeometry>
        </mxCell>
        <mxCell id="5FPVLCmRVMXUE-lfEmEZ-3" value="Front end" style="ellipse;whiteSpace=wrap;html=1;aspect=fixed;" vertex="1" parent="1">
          <mxGeometry x="10" y="290" width="115" height="115" as="geometry" />
        </mxCell>
        <mxCell id="5FPVLCmRVMXUE-lfEmEZ-11" value="Interakce" style="text;html=1;strokeColor=none;fillColor=none;align=center;verticalAlign=middle;whiteSpace=wrap;rounded=0;" vertex="1" parent="1">
          <mxGeometry x="65" y="130" width="60" height="30" as="geometry" />
        </mxCell>
      </root>
    </mxGraphModel>
  </diagram>
</mxfile>
